{"title":"Marvels.Daredevil.S02E10.WEBRip.x264-FLEET","uid":13913427,"size":332764573,"categoryP":"video","categoryS":"tv_shows","magnet":"?xt=urn:btih:ffc45b5d1935bb22d8ce5dd8f902463ad2342f6d&amp;dn=Marvels.Daredevil.S02E10.WEBRip.x264-FLEET&amp;tr=udp%3A%2F%2Ftracker.leechers-paradise.org%3A6969&amp;tr=udp%3A%2F%2Fzer0day.ch%3A1337&amp;tr=udp%3A%2F%2Fopen.demonii.com%3A1337&amp;tr=udp%3A%2F%2Ftracker.coppersurfer.tk%3A6969&amp;tr=udp%3A%2F%2Fexodus.desync.com%3A6969","seeders":15,"leechers":3,"uploader":"TheRival","files":3,"time":1458325361,"description":"Video\r\nID                                       : 1\r\nFormat                                   : AVC\r\nFormat/Info                              : Advanced Video Codec\r\nFormat profile                           :   \r\nFormat settings, CABAC                   : Yes\r\nFormat settings, ReFrames                : 5 frames\r\nCodec ID                                 : V_MPEG4/ISO/AVC\r\nDuration                                 : 51mn 51s\r\nBit rate                                 : 733 Kbps\r\nWidth                                    : 720 pixels\r\nHeight                                   : 404 pixels\r\nDisplay aspect ratio                     : 16:9\r\nFrame rate mode                          : Constant\r\nFrame rate                               : 23.976 (24000/1001) fps\r\nColor space                              : YUV\r\nChroma subsampling                       : 4:2:0\r\nBit depth                                : 8 bits\r\nScan type                                : Progressive\r\nBits/(Pixel*Frame)                       : 0.105\r\nStream size                              : 272 MiB (86%)\r\nWriting library                          : x264 core 148 r2665 a01e339\r\nEncoding settings                        : cabac=1 / ref=5 / deblock=1:-3:-3 / analyse=0x3:0x113 / me=umh / subme=8 / psy=1 / psy_rd=1.00:0.00 / mixed_ref=1 / me_range=16 / chroma_me=1 / trellis=2 / 8x8dct=1 / cqm=0 / deadzone=21,11 / fast_pskip=0 / chroma_qp_offset=-2 / threads=12 / lookahead_threads=2 / sliced_threads=0 / nr=0 / decimate=1 / interlaced=0 / bluray_compat=0 / constrained_intra=0 / bframes=3 / b_pyramid=2 / b_adapt=2 / b_bias=0 / direct=3 / weightb=1 / open_gop=0 / weightp=2 / keyint=250 / keyint_min=23 / scenecut=40 / intra_refresh=0 / rc_lookahead=50 / rc=crf / mbtree=1 / crf=19.0 / qcomp=0.60 / qpmin=0 / qpmax=69 / qpstep=4 / ip_ratio=1.40 / aq=3:0.80\r\nDefault                                  : Yes\r\nForced                                   : No\r\nColor range                              : Limited\r\nMatrix coefficients                      : BT.709\r\n\r\nAudio\r\nID                                       : 2\r\nFormat                                   : AAC\r\nFormat/Info                              : Advanced Audio Codec\r\nFormat profile                           : LC\r\nCodec ID                                 : A_AAC\r\nDuration                                 : 51mn 51s\r\nBit rate                                 : 120 Kbps\r\nChannel(s)                               : 2 channels\r\nChannel positions                        : Front: L R\r\nSampling rate                            : 48.0 KHz\r\nFrame rate                               : 46.875 fps (1024 spf)\r\nCompression mode                         : Lossy\r\nStream size                              : 44.5 MiB (14%)\r\nDefault                                  : Yes\r\nForced                                   : No\r\n\r\nText #1\r\nID                                       : 3\r\nFormat                                   : UTF-8\r\nCodec ID                                 : S_TEXT/UTF8\r\nCodec ID/Info                            : UTF-8 Plain Text\r\nDuration                                 : 50mn 28s\r\nBit rate                                 : 71 bps\r\nCount of elements                        : 816\r\nStream size                              : 26.3 KiB (0%)\r\nTitle                                    : English\r\nLanguage                                 : English\r\nDefault                                  : No\r\nForced                                   : No\r\n\r\nText #2\r\nID                                       : 4\r\nFormat                                   : UTF-8\r\nCodec ID                                 : S_TEXT/UTF8\r\nCodec ID/Info                            : UTF-8 Plain Text\r\nDuration                                 : 49mn 12s\r\nBit rate                                 : 56 bps\r\nCount of elements                        : 517\r\nStream size                              : 20.3 KiB (0%)\r\nTitle                                    : Dutch\r\nLanguage                                 : Dutch\r\nDefault                                  : No\r\nForced                                   : No\r\n\r\nText #3\r\nID                                       : 5\r\nFormat                                   : UTF-8\r\nCodec ID                                 : S_TEXT/UTF8\r\nCodec ID/Info                            : UTF-8 Plain Text\r\nDuration                                 : 51mn 5s\r\nBit rate                                 : 57 bps\r\nCount of elements                        : 611\r\nStream size                              : 21.5 KiB (0%)\r\nTitle                                    : French\r\nLanguage                                 : French\r\nDefault                                  : No\r\nForced                                   : No\r\n\r\nText #4\r\nID                                       : 6\r\nFormat                                   : UTF-8\r\nCodec ID                                 : S_TEXT/UTF8\r\nCodec ID/Info                            : UTF-8 Plain Text\r\nDuration                                 : 49mn 12s\r\nBit rate                                 : 61 bps\r\nCount of elements                        : 634\r\nStream size                              : 22.2 KiB (0%)\r\nTitle                                    : Italian\r\nLanguage                                 : Italian\r\nDefault                                  : No\r\nForced                                   : No\r\n\r\nText #5\r\nID                                       : 7\r\nFormat                                   : UTF-8\r\nCodec ID                                 : S_TEXT/UTF8\r\nCodec ID/Info                            : UTF-8 Plain Text\r\nDuration                                 : 49mn 12s\r\nBit rate                                 : 62 bps\r\nCount of elements                        : 646\r\nStream size                              : 22.7 KiB (0%)\r\nTitle                                    : Portuguese\r\nLanguage                                 : Portuguese\r\nDefault                                  : No\r\nForced                                   : No","torrent":{"xt":"urn:btih:ffc45b5d1935bb22d8ce5dd8f902463ad2342f6d","amp;dn":"Marvels.Daredevil.S02E10.WEBRip.x264-FLEET","amp;tr":["udp%3A%2F%2Ftracker.leechers-paradise.org%3A6969","udp%3A%2F%2Fzer0day.ch%3A1337","udp%3A%2F%2Fopen.demonii.com%3A1337","udp%3A%2F%2Ftracker.coppersurfer.tk%3A6969","udp%3A%2F%2Fexodus.desync.com%3A6969"],"infoHash":"ffc45b5d1935bb22d8ce5dd8f902463ad2342f6d","infoHashBuffer":{"type":"Buffer","data":[255,196,91,93,25,53,187,34,216,206,93,216,249,2,70,58,210,52,47,109]},"announce":[],"urlList":[]}}